<svg viewBox="0 0 368 369" fill="none" xmlns="http://www.w3.org/2000/svg">
<g filter="url(#filter0_d)">
<path d="M179.655 338.418C266.904 338.418 337.634 267.716 337.634 180.5C337.634 93.2842 266.904 22.5818 179.655 22.5818C92.4052 22.5818 21.6754 93.2842 21.6754 180.5C21.6754 267.716 92.4052 338.418 179.655 338.418Z" fill="#1D1E1D"/>
<path d="M347.317 162.952C338.536 78.1388 266.829 12 179.655 12C92.48 12 20.7811 78.1388 12 162.952H347.317Z" fill="#C5312A"/>
<path d="M12 198.047C20.7811 282.86 92.4881 348.999 179.655 348.999C266.821 348.999 338.536 282.86 347.309 198.047H12Z" fill="#E7E7E9"/>
<path d="M179.654 233.593C208.988 233.593 232.767 209.822 232.767 180.5C232.767 151.178 208.988 127.407 179.654 127.407C150.32 127.407 126.54 151.178 126.54 180.5C126.54 209.822 150.32 233.593 179.654 233.593Z" fill="#1D1E1D"/>
<path d="M218.23 195.841C226.702 174.554 216.308 150.431 195.012 141.962C173.717 133.492 149.585 143.883 141.112 165.17C132.639 186.457 143.034 210.58 164.329 219.049C185.625 227.519 209.757 217.128 218.23 195.841Z" fill="#F7F7F7"/>
<path d="M179.657 208.485C195.118 208.485 207.652 195.956 207.652 180.501C207.652 165.046 195.118 152.517 179.657 152.517C164.196 152.517 151.662 165.046 151.662 180.501C151.662 195.956 164.196 208.485 179.657 208.485Z" fill="#B8B5B5"/>
<path d="M179.657 206.424C193.979 206.424 205.589 194.818 205.589 180.502C205.589 166.185 193.979 154.579 179.657 154.579C165.335 154.579 153.724 166.185 153.724 180.502C153.724 194.818 165.335 206.424 179.657 206.424Z" fill="#F7F7F7"/>
</g>
<defs>
<filter id="filter0_d" x="0" y="0" width="367.317" height="368.999" filterUnits="userSpaceOnUse" color-interpolation-filters="sRGB">
<feFlood flood-opacity="0" result="BackgroundImageFix"/>
<feColorMatrix in="SourceAlpha" type="matrix" values="0 0 0 0 0 0 0 0 0 0 0 0 0 0 0 0 0 0 127 0"/>
<feOffset dx="4" dy="4"/>
<feGaussianBlur stdDeviation="8"/>
<feColorMatrix type="matrix" values="0 0 0 0 0.00392157 0 0 0 0 0.109804 0 0 0 0 0.25098 0 0 0 0.2 0"/>
<feBlend mode="normal" in2="BackgroundImageFix" result="effect1_dropShadow"/>
<feBlend mode="normal" in="SourceGraphic" in2="effect1_dropShadow" result="shape"/>
</filter>
</defs>
</svg>
